<svg xmlns="http://www.w3.org/2000/svg" width="217.965" height="48.819" viewBox="0 0 217.965 48.819"><g transform="translate(-1007.008 -16)"><g transform="translate(975.108 -14)"><path d="M54.625,30h0L31.9,38.1l3.466,30.048L54.625,78.819h0L73.885,68.152,77.351,38.1Z" transform="translate(0)" fill="#fff"/><path d="M125,30V60.121h0v18.7h0l19.259-10.667L147.725,38.1Z" transform="translate(-70.375)" fill="#ebebeb"/><path d="M81.006,52.1,66.8,83.955h5.3l2.856-7.128H87.011l2.856,7.128h5.3L81.006,52.1Zm4.15,20.333h-8.3l4.15-9.984Z" transform="translate(-26.381 -16.705)" fill="#818181"/></g><path d="M94.495,3.784V-18.6H91.162V3.784Zm9-18.42h3.2a2.658,2.658,0,0,1,2.979,2.722c0,1.7-1.086,2.7-2.942,2.7h-3.235Zm0,8.252h3.015L109.79,0h4.175l-3.711-6.958a5.2,5.2,0,0,0,3.2-5c0-3.5-2.38-5.652-6.25-5.652H99.8V0h3.687Zm18.115,3.918c-1.233,0-2.1-.61-2.1-1.611,0-.964.745-1.514,2.271-1.624l2.722-.171v.989A2.635,2.635,0,0,1,121.606-2.466ZM120.435.208a4.331,4.331,0,0,0,3.906-1.965h.22V0H128V-9.192c0-2.881-2.014-4.565-5.579-4.565-3.381,0-5.664,1.563-5.9,4.053H119.8c.293-.806,1.147-1.245,2.429-1.245,1.465,0,2.271.635,2.271,1.758v1.1l-3.259.2c-3.345.2-5.212,1.611-5.212,4.053C116.028-1.379,117.847.208,120.435.208ZM131.494,0h3.552V-7.764a2.616,2.616,0,0,1,2.661-2.93c1.685,0,2.478.977,2.478,2.832V0h3.552V-8.7c0-3.223-1.611-5.054-4.6-5.054a4,4,0,0,0-3.979,2.454h-.22v-2.161h-3.442Zm19.58-8.2h-.22V-18.6H147.3V0h3.552V-4.468l.977-1L155.762,0h4.211l-5.481-7.69,5.127-5.774h-4.041Z" transform="translate(1065 49)" fill="#586069"/><path d="M13.452,0h3.992L11.328-17.615H6.995L.879,0h3.7L5.933-4.2h6.189ZM8.936-13.953h.22L11.34-7.043H6.726ZM20.093,0h3.552V-7.764a2.616,2.616,0,0,1,2.661-2.93c1.685,0,2.478.977,2.478,2.832V0h3.552V-8.7c0-3.223-1.611-5.054-4.6-5.054A4,4,0,0,0,23.755-11.3h-.22v-2.161H20.093ZM41.76-3C39.832-3,38.733-4.48,38.733-6.86c0-2.356,1.111-3.845,3.027-3.845s3.076,1.489,3.076,3.857S43.689-3,41.76-3ZM41.711,5.1c4.065,0,6.641-1.99,6.641-5.151V-13.464H44.91V-11.3h-.22a4.419,4.419,0,0,0-4.089-2.38c-3.418,0-5.518,2.661-5.518,6.836C35.083-2.8,37.17-.2,40.527-.2A4.263,4.263,0,0,0,44.58-2.368h.22V.122c0,1.514-1.111,2.393-3.015,2.393-1.538,0-2.539-.525-2.722-1.355H35.547C35.767,3.528,38.135,5.1,41.711,5.1ZM64.1-13.464H60.547V-5.7c0,1.794-.952,2.905-2.722,2.905-1.636,0-2.478-.952-2.478-2.808v-7.861H51.794v8.777c0,3.125,1.807,4.98,4.712,4.98a3.838,3.838,0,0,0,3.931-2.454h.22V0H64.1ZM67.786,0h3.552V-18.6H67.786Zm12.1-2.466c-1.233,0-2.1-.61-2.1-1.611,0-.964.745-1.514,2.271-1.624l2.722-.171v.989A2.635,2.635,0,0,1,79.883-2.466ZM78.711.208a4.331,4.331,0,0,0,3.906-1.965h.22V0h3.442V-9.192c0-2.881-2.014-4.565-5.579-4.565-3.381,0-5.664,1.563-5.9,4.053h3.271c.293-.806,1.147-1.245,2.429-1.245,1.465,0,2.271.635,2.271,1.758v1.1l-3.259.2C76.172-7.7,74.3-6.287,74.3-3.845,74.3-1.379,76.123.208,78.711.208Z" transform="translate(1065 49)" fill="#fafbfc"/></g></svg>